<?xml version="1.0" standalone="no"?>
<!DOCTYPE svg PUBLIC "-//W3C//DTD SVG 20010904//EN"
 "http://www.w3.org/TR/2001/REC-SVG-20010904/DTD/svg10.dtd">
<svg version="1.0" xmlns="http://www.w3.org/2000/svg"
 width="840.000000pt" height="840.000000pt" viewBox="0 0 840.000000 840.000000"
 preserveAspectRatio="xMidYMid meet">
<metadata>
Created by potrace 1.14, written by Peter Selinger 2001-2017
</metadata>
<g transform="translate(0.000000,840.000000) scale(0.100000,-0.100000)"
fill="#000000" stroke="none">
<path d="M1 8295 c-1 -58 2 -105 7 -105 5 0 18 17 29 38 12 20 34 48 49 61 21
18 24 25 13 32 -14 9 -6 12 22 10 9 -1 19 8 22 21 4 12 9 19 13 15 4 -4 12 -3
18 2 6 5 56 10 111 11 120 3 125 2 125 -9 0 -8 -19 -22 -122 -88 -24 -16 -45
-31 -48 -34 -3 -3 -18 -13 -35 -22 -16 -8 -46 -30 -65 -47 -19 -18 -53 -44
-75 -59 -22 -14 -45 -33 -52 -41 -10 -12 -12 -893 -13 -4047 l0 -4033 625 0
c344 0 625 1 625 3 0 1 -16 41 -36 87 -85 202 -275 716 -339 920 -13 41 -26
83 -30 92 -12 30 13 21 58 -21 23 -21 78 -66 122 -98 79 -59 263 -218 339
-294 22 -22 43 -39 48 -39 5 0 6 -4 3 -10 -3 -5 1 -10 9 -10 9 0 16 -4 16 -8
0 -5 29 -39 65 -78 36 -38 65 -78 65 -90 0 -11 -13 -47 -29 -80 -15 -32 -32
-70 -36 -84 -4 -14 -16 -43 -26 -65 -9 -22 -32 -74 -49 -115 -18 -41 -36 -79
-41 -84 -20 -22 -3 -26 116 -26 l125 0 6 28 c4 15 13 36 20 47 7 11 23 40 37
65 14 25 33 47 42 48 19 4 108 -86 147 -150 l23 -37 259 -1 259 0 -39 35 c-21
19 -42 34 -46 35 -4 0 -36 28 -70 63 -35 34 -86 81 -115 105 -28 23 -103 93
-167 155 -127 123 -132 134 -102 214 12 35 40 128 68 228 7 22 16 45 21 52 10
14 21 54 44 158 18 83 29 395 13 395 -6 0 -11 -32 -11 -72 -1 -66 -2 -69 -10
-33 -8 43 -2 102 12 111 15 9 10 26 -6 20 -9 -3 -15 0 -15 9 0 8 6 12 14 9 8
-3 17 0 21 6 4 7 -2 14 -15 17 -17 4 -20 11 -16 32 5 23 1 28 -34 44 -22 10
-40 25 -40 33 0 8 -5 14 -10 14 -6 0 -24 14 -42 30 -25 24 -27 30 -12 28 10
-2 20 2 21 7 2 6 -3 11 -10 11 -6 1 -16 2 -21 3 -5 0 -3 7 3 15 9 11 9 16 0
21 -6 4 -15 1 -20 -6 -13 -21 -40 20 -34 51 2 14 2 19 -1 13 -11 -26 -34 -13
-35 20 -1 23 -3 26 -6 10 -5 -27 -16 -29 -34 -6 -10 11 -10 14 -1 9 6 -4 12
-4 13 1 0 4 2 19 4 33 3 28 -11 60 -25 60 -6 0 -10 -8 -11 -17 0 -14 -2 -15
-6 -3 -3 8 -11 18 -17 22 -6 5 -1 8 12 8 13 0 20 4 17 10 -3 6 -15 10 -26 10
-22 0 -31 18 -33 62 -1 16 -7 32 -14 37 -7 4 -14 17 -15 28 -1 14 -6 19 -16
15 -10 -4 -13 -1 -9 10 4 9 -4 26 -18 41 l-24 27 32 -6 c18 -4 74 -22 123 -41
50 -19 124 -45 166 -58 75 -23 148 -52 253 -100 30 -14 58 -25 62 -25 3 0 32
-11 63 -24 31 -13 97 -41 146 -61 102 -42 125 -59 125 -89 0 -12 11 -77 25
-146 50 -249 55 -277 70 -385 42 -298 97 -514 153 -593 70 -102 70 -102 82
-302 5 -102 12 -210 14 -240 2 -37 -1 -62 -10 -75 -8 -10 -14 -22 -14 -27 0
-4 1249 -8 2775 -8 l2775 0 0 2703 0 2702 -39 -41 -40 -41 -118 -6 c-65 -3
-131 -10 -148 -15 -16 -6 -80 -22 -141 -37 l-112 -26 -36 22 c-20 11 -36 25
-36 31 0 5 21 18 48 29 26 11 56 25 67 31 45 26 72 37 113 48 25 6 42 17 42
25 0 8 -4 15 -10 15 -5 0 -10 11 -10 25 0 16 -15 41 -39 66 -21 22 -47 58 -56
80 -20 43 -44 52 -46 17 -1 -13 -1 -26 0 -30 0 -5 -3 -8 -8 -8 -6 0 -5 -14 0
-36 14 -50 2 -60 -89 -68 -42 -4 -92 -11 -110 -17 -30 -10 -35 -8 -58 18 -26
30 -124 220 -124 241 0 8 19 12 61 12 119 0 233 30 216 57 -3 5 -43 28 -89 52
-61 32 -110 68 -185 139 l-102 97 -10 90 c-8 77 -45 205 -85 297 -7 15 27 35
215 128 123 61 245 125 271 142 27 16 59 31 72 32 13 0 22 4 20 7 -7 12 90 69
403 238 73 39 139 71 148 71 13 0 15 74 15 655 l0 655 -376 0 c-349 0 -378 -1
-402 -18 -15 -11 -155 -60 -312 -111 -157 -51 -305 -102 -330 -113 -83 -38
-89 -39 -120 -23 -16 8 -36 12 -44 9 -25 -10 -19 -22 8 -17 38 8 41 -15 4 -30
-18 -8 -36 -12 -40 -10 -14 8 -8 54 7 59 11 5 6 13 -21 35 -41 32 -50 35 -56
17 -3 -8 -15 -1 -34 17 -49 50 -104 44 -104 -11 0 -20 -6 -42 -14 -50 -20 -19
-86 -19 -86 1 0 9 -6 12 -17 8 -15 -5 -16 -3 -6 7 10 11 15 11 27 1 21 -18 41
-4 24 17 -11 14 -10 15 7 8 41 -15 41 -15 44 34 1 13 8 20 21 20 11 0 20 5 20
10 0 7 7 7 22 -1 18 -10 20 -9 15 4 -4 11 -2 14 9 10 7 -3 14 0 14 6 0 14 88
53 102 45 7 -4 8 -3 4 4 -5 8 2 12 19 12 14 0 24 4 20 9 -3 6 9 14 28 19 42
12 479 14 572 3 39 -4 72 -4 75 0 3 5 32 10 64 13 32 3 61 7 64 10 3 3 -292 6
-655 6 -520 0 -662 -3 -666 -12 -4 -10 -6 -10 -6 0 -1 8 -18 12 -51 12 -55 0
-73 -17 -49 -46 7 -9 12 -36 10 -66 -1 -31 2 -48 8 -44 5 4 13 2 16 -4 4 -6 3
-10 -2 -9 -4 1 -15 1 -23 -1 -11 -1 -9 -4 5 -9 19 -7 18 -8 -5 -21 -14 -7 -33
-21 -43 -31 -21 -23 -31 -24 -50 -5 -11 12 -15 11 -25 -5 -10 -16 -9 -19 13
-25 14 -3 25 -10 25 -16 0 -12 -42 1 -52 16 -4 6 -8 19 -8 28 0 10 -11 25 -24
34 -14 8 -27 23 -30 32 -2 9 -2 0 1 -20 3 -24 1 -38 -6 -38 -6 0 -8 7 -4 17 5
13 2 15 -17 10 -24 -6 -49 11 -43 29 2 7 -15 10 -45 10 -35 -1 -48 3 -45 11 3
7 -5 22 -16 34 -24 26 -27 39 -8 39 6 1 -1 8 -18 17 l-30 16 30 9 c34 10 321
13 346 3 11 -4 18 0 22 14 l5 21 -3083 0 -3083 0 -1 -105z m6424 80 c115 0
157 -9 149 -29 -3 -9 2 -16 13 -18 13 -3 2 -12 -35 -31 -53 -27 -81 -36 -52
-17 13 8 12 10 -3 10 -10 0 -16 4 -13 9 4 5 -4 6 -16 3 -19 -5 -20 -7 -5 -10
30 -6 18 -22 -15 -20 -18 1 -44 -1 -58 -5 -14 -4 -19 -4 -12 -1 20 9 14 27 -8
21 -22 -6 -26 3 -9 20 9 9 7 10 -9 6 -15 -3 -24 0 -28 11 -3 9 -10 13 -15 10
-11 -6 -11 2 -2 34 3 13 9 20 12 15 3 -4 51 -8 106 -8z m276 -5 c6 0 7 5 4 10
-3 6 -2 10 3 10 6 0 13 -7 16 -16 3 -8 2 -12 -4 -9 -6 3 -10 1 -10 -4 0 -6
-15 -11 -32 -10 -28 0 -30 2 -13 9 13 6 15 9 5 9 -13 1 -13 2 0 11 10 6 16 6
18 0 2 -6 8 -10 13 -10z m-1398 -1 c-6 -6 -22 -17 -35 -23 -12 -7 -22 -18 -20
-25 1 -7 -2 -9 -9 -5 -6 3 -16 0 -21 -7 -7 -11 -11 -11 -15 -1 -3 9 -13 5 -35
-13 -16 -14 -37 -25 -46 -25 -17 -1 -62 -33 -62 -44 0 -3 9 -6 20 -6 17 0 20
-7 20 -50 0 -43 -3 -50 -20 -50 -13 0 -20 -7 -20 -20 0 -15 7 -20 29 -20 26 0
35 8 42 38 2 8 62 30 69 25 2 -2 -2 -9 -10 -14 -12 -9 -12 -10 3 -5 10 3 30 6
43 6 13 0 24 5 24 11 0 6 7 18 16 26 13 13 13 18 2 25 -9 7 -8 8 5 4 10 -3 23
-6 28 -6 16 0 10 -18 -8 -23 -13 -3 -14 -5 -3 -6 8 0 22 3 30 9 12 7 10 12 -9
29 -18 16 -20 21 -8 21 8 0 22 -7 31 -15 14 -14 15 -13 11 14 -3 25 -1 28 17
23 14 -3 19 -1 14 6 -9 15 6 16 21 1 8 -8 13 -8 17 0 4 6 2 11 -5 11 -9 0 -9
3 0 14 8 10 9 16 1 19 -6 3 -5 4 2 3 7 -2 14 -9 14 -17 1 -8 2 -20 3 -26 2
-21 21 -14 21 7 0 12 7 20 18 20 11 0 21 12 28 35 l11 35 -23 -15 c-26 -17
-34 -19 -34 -7 0 8 73 42 90 42 6 0 10 -3 10 -7 0 -12 52 -33 63 -26 6 3 1 10
-11 14 -12 5 -22 14 -21 21 0 7 3 8 5 3 2 -6 22 -9 44 -7 25 3 40 0 40 -7 0
-6 9 -11 20 -11 11 0 20 -4 20 -10 0 -5 -9 -10 -20 -10 -11 0 -20 5 -20 11 0
6 -6 9 -12 7 -8 -3 -12 -19 -10 -42 3 -27 -1 -41 -15 -51 -17 -13 -16 -14 8
-15 34 0 37 -9 33 -92 -3 -62 -1 -68 16 -68 16 0 20 -7 20 -39 0 -35 -3 -39
-31 -45 -17 -3 -80 -6 -140 -6 -66 0 -109 -4 -109 -10 0 -6 46 -10 119 -10 69
0 122 -4 126 -10 4 -6 -38 -10 -119 -10 -69 0 -126 4 -126 9 0 5 -36 12 -80
16 l-80 7 -1 52 c-1 28 -1 60 0 71 1 14 -1 16 -7 8 -9 -15 -69 -20 -94 -9 -11
5 -18 4 -18 -2 0 -11 34 -22 73 -22 l27 0 0 -80 c0 -73 -2 -80 -20 -80 -17 0
-20 7 -20 40 0 22 -4 40 -10 40 -5 0 -10 -7 -10 -15 0 -8 -9 -15 -20 -15 -11
0 -20 7 -20 15 0 17 -36 21 -42 5 -2 -6 -55 -13 -121 -17 -88 -5 -117 -9 -117
-20 0 -9 -13 -13 -40 -13 -22 0 -40 -5 -40 -10 0 -7 -83 -9 -242 -8 l-243 3 3
23 c3 21 1 22 -78 22 -79 0 -81 -1 -78 -22 3 -21 -1 -23 -51 -26 -49 -3 -53
-1 -41 13 11 13 9 19 -11 36 -24 21 -24 21 -1 15 13 -5 22 -3 22 3 0 6 14 11
30 11 17 0 30 -5 30 -11 0 -5 5 -7 10 -4 6 3 10 15 10 25 0 15 10 21 43 27
l42 7 -37 11 c-21 5 -58 9 -83 7 -36 -3 -45 -8 -45 -23 0 -15 -7 -19 -40 -19
-22 0 -40 -4 -40 -10 0 -5 -18 -10 -40 -10 -22 0 -40 -4 -40 -10 0 -5 -18 -10
-40 -10 -33 0 -40 3 -40 20 0 18 -7 20 -80 20 -47 0 -80 -4 -80 -10 0 -5 -18
-10 -40 -10 -22 0 -40 5 -40 10 0 6 -33 10 -80 10 -47 0 -80 -4 -80 -10 0 -5
-18 -10 -40 -10 -33 0 -40 -3 -40 -20 0 -18 -6 -20 -52 -19 -29 0 -47 3 -40 6
20 8 14 33 -8 33 -21 0 -60 -33 -60 -50 0 -5 -4 -10 -10 -10 -5 0 -10 9 -10
20 0 11 -6 20 -14 20 -14 0 -26 21 -26 46 0 8 9 14 20 14 13 0 20 7 20 20 0
19 -7 20 -220 20 -213 0 -220 -1 -220 -20 0 -13 7 -20 20 -20 13 0 20 -7 20
-20 0 -11 5 -20 10 -20 6 0 10 -13 10 -30 l0 -30 -80 0 c-47 0 -80 -4 -80 -10
0 -6 -47 -10 -120 -10 -73 0 -120 -4 -120 -10 0 -5 -18 -10 -40 -10 -22 0 -40
5 -40 10 0 6 -18 10 -40 10 -38 0 -40 2 -40 30 0 27 -3 30 -30 30 -21 0 -30
-5 -30 -16 0 -20 -24 -44 -44 -44 -12 0 -16 10 -16 40 0 33 -3 40 -20 40 -17
0 -20 7 -20 40 0 33 -3 40 -20 40 -17 0 -20 -7 -20 -40 0 -33 -3 -40 -20 -40
-18 0 -20 -7 -20 -65 l0 -65 40 0 40 0 0 -55 0 -55 -80 0 c-64 0 -80 -3 -80
-15 0 -11 -11 -15 -40 -15 -29 0 -40 4 -40 15 0 10 11 15 35 15 19 0 35 5 35
10 0 6 -22 10 -50 10 -49 0 -50 1 -50 30 0 20 -5 30 -15 30 -8 0 -15 9 -15 20
0 13 7 20 20 20 13 0 20 7 20 20 0 11 5 20 10 20 6 0 10 -9 10 -20 0 -17 7
-20 39 -20 l39 0 -5 88 c-2 48 -6 93 -8 100 -3 7 -21 12 -45 12 l-40 0 0 80
c0 73 -2 80 -20 80 -17 0 -20 7 -20 40 0 38 2 40 30 40 17 0 30 5 30 10 0 10
-181 6 -236 -6 -13 -2 -24 2 -28 11 -3 8 -12 15 -21 15 -29 0 -15 19 18 22 17
2 867 4 1887 6 1405 2 1852 0 1843 -9z m-3786 -21 c-3 -8 -6 -5 -6 6 -1 11 2
17 5 13 3 -3 4 -12 1 -19z m4703 -8 c0 -5 -2 -10 -4 -10 -3 0 -8 5 -11 10 -3
6 -1 10 4 10 6 0 11 -4 11 -10z m-6161 -50 c-13 -16 -25 -28 -27 -25 -5 5 37
55 45 55 2 0 -6 -13 -18 -30z m1571 15 c0 -8 -7 -15 -15 -15 -8 0 -15 7 -15
15 0 8 7 15 15 15 8 0 15 -7 15 -15z m4622 -27 c-7 -7 -12 -8 -12 -2 0 14 12
26 19 19 2 -3 -1 -11 -7 -17z m-4492 -63 c0 -30 -4 -55 -10 -55 -6 0 -10 -33
-10 -80 0 -47 4 -80 10 -80 6 0 10 -18 10 -40 0 -29 -4 -40 -15 -40 -11 0 -15
11 -15 40 0 29 -4 40 -15 40 -12 0 -15 20 -15 120 0 113 -1 120 -20 120 -17 0
-20 -7 -20 -40 0 -33 -3 -40 -20 -40 -17 0 -20 7 -20 40 0 29 4 40 15 40 8 0
15 7 15 15 0 12 13 15 55 15 l55 0 0 -55z m4515 45 c3 -5 1 -10 -4 -10 -6 0
-11 5 -11 10 0 6 2 10 4 10 3 0 8 -4 11 -10z m-4820 -10 c3 -5 1 -10 -4 -10
-6 0 -11 5 -11 10 0 6 2 10 4 10 3 0 8 -4 11 -10z m4972 4 c-3 -3 -12 -4 -19
-1 -8 3 -5 6 6 6 11 1 17 -2 13 -5z m-6390 -10 c-3 -3 -12 -4 -19 -1 -8 3 -5
6 6 6 11 1 17 -2 13 -5z m6218 -4 c3 -5 1 -10 -4 -10 -6 0 -11 5 -11 10 0 6 2
10 4 10 3 0 8 -4 11 -10z m-1117 -14 c-7 -8 -15 -12 -17 -11 -5 6 10 25 20 25
5 0 4 -6 -3 -14z m47 4 c-3 -5 -12 -10 -18 -10 -7 0 -6 4 3 10 19 12 23 12 15
0z m1351 -5 c-11 -8 -25 -15 -30 -15 -6 0 -2 7 8 15 11 8 25 15 30 15 6 0 2
-7 -8 -15z m-239 -1 c-3 -3 -12 -4 -19 -1 -8 3 -5 6 6 6 11 1 17 -2 13 -5z
m-467 -14 c0 -5 -4 -10 -10 -10 -5 0 -10 5 -10 10 0 6 5 10 10 10 6 0 10 -4
10 -10z m446 -5 c16 -12 16 -14 3 -15 -9 0 -22 7 -29 15 -16 19 0 19 26 0z
m-1131 -15 c-3 -5 -11 -10 -16 -10 -6 0 -7 5 -4 10 3 6 11 10 16 10 6 0 7 -4
4 -10z m1305 5 c0 -2 -10 -9 -22 -15 -22 -11 -22 -10 -4 4 21 17 26 19 26 11z
m-590 -24 c0 -3 -5 -13 -10 -21 -8 -13 -10 -12 -10 3 0 9 -5 17 -11 17 -5 0
-8 4 -4 10 6 9 35 3 35 -9z m900 -1 c0 -5 -2 -10 -4 -10 -3 0 -8 5 -11 10 -3
6 -1 10 4 10 6 0 11 -4 11 -10z m-390 -10 c-13 -9 -13 -11 0 -19 8 -6 12 -12
10 -15 -3 -2 -14 2 -25 10 -17 13 -18 16 -5 24 8 5 20 10 25 10 6 0 3 -5 -5
-10z m-336 -16 c9 -24 7 -28 -9 -14 -17 14 -20 30 -6 30 5 0 12 -7 15 -16z
m172 1 c-11 -8 -24 -15 -30 -15 -5 0 -1 7 10 15 10 8 24 14 29 14 6 0 1 -6 -9
-14z m-46 -9 c0 -2 -7 -6 -15 -10 -8 -3 -15 -1 -15 4 0 6 7 10 15 10 8 0 15
-2 15 -4z m-4640 -41 c0 -11 -11 -15 -40 -15 -29 0 -40 4 -40 15 0 11 11 15
40 15 29 0 40 -4 40 -15z m4759 -5 c-13 -9 -39 -2 -39 10 0 4 12 5 26 2 17 -3
22 -7 13 -12z m-196 3 c-7 -2 -19 -2 -25 0 -7 3 -2 5 12 5 14 0 19 -2 13 -5z
m477 -3 c0 -5 -11 -10 -24 -10 -13 0 -31 -3 -40 -6 -11 -4 -16 -1 -16 10 0 12
10 16 40 16 22 0 40 -4 40 -10z m190 -25 c0 -2 -6 -5 -13 -8 -8 -3 -14 1 -14
8 0 7 6 11 14 8 7 -3 13 -6 13 -8z m-3790 -15 c0 -6 33 -10 80 -10 73 0 80 -2
80 -20 0 -17 -7 -20 -40 -20 -29 0 -40 -4 -40 -15 0 -11 -11 -15 -40 -15 -29
0 -40 4 -40 15 0 12 -16 15 -80 15 -73 0 -80 2 -80 20 0 17 7 20 40 20 22 0
40 5 40 10 0 6 18 10 40 10 22 0 40 -4 40 -10z m3140 -24 c0 -2 -7 -6 -15 -10
-8 -3 -15 -1 -15 4 0 6 7 10 15 10 8 0 15 -2 15 -4z m27 -22 c-3 -3 -12 -4
-19 -1 -8 3 -5 6 6 6 11 1 17 -2 13 -5z m-310 -30 c-3 -3 -12 -4 -19 -1 -8 3
-5 6 6 6 11 1 17 -2 13 -5z m-697 -19 c0 -11 -11 -15 -40 -15 -29 0 -40 4 -40
15 0 11 11 15 40 15 29 0 40 -4 40 -15z m-1100 -27 c0 -5 -4 -8 -10 -8 -5 0
-10 10 -10 23 0 18 2 19 10 7 5 -8 10 -18 10 -22z m-740 0 c0 -19 2 -20 10 -8
9 13 10 13 10 0 0 -13 1 -13 10 0 8 13 10 13 10 -2 0 -9 6 -19 13 -21 6 -3 -1
-6 -18 -6 -16 0 -37 4 -45 9 -8 5 -10 10 -5 10 6 0 4 4 -4 9 -7 5 -10 14 -7
20 12 19 26 12 26 -11z m63 -3 c-3 -9 -8 -14 -10 -11 -3 3 -2 9 2 15 9 16 15
13 8 -4z m-1763 -45 c0 -33 -3 -40 -20 -40 -17 0 -20 7 -20 40 0 33 3 40 20
40 17 0 20 -7 20 -40z m3330 25 c-7 -8 -16 -15 -21 -15 -5 0 -9 7 -9 15 0 9 9
15 21 15 18 0 19 -2 9 -15z m414 0 c-4 -8 -8 -15 -10 -15 -2 0 -4 7 -4 15 0 8
4 15 10 15 5 0 7 -7 4 -15z m241 5 c19 -8 19 -9 -2 -9 -12 -1 -25 4 -28 9 -7
12 2 12 30 0z m40 1 c3 -5 2 -12 -3 -15 -5 -3 -9 1 -9 9 0 17 3 19 12 6z
m-175 -26 c-7 -9 -15 -13 -17 -11 -6 6 20 36 26 30 2 -2 -2 -10 -9 -19z
m-2206 -1 c9 -22 8 -24 -9 -24 -8 0 -15 9 -15 20 0 24 15 27 24 4z m-744 -24
c0 -17 7 -20 40 -20 22 0 40 5 40 10 0 6 18 10 40 10 22 0 40 -4 40 -10 0 -5
-18 -10 -40 -10 -36 0 -40 -2 -40 -25 0 -22 4 -25 40 -25 33 0 40 4 40 19 0
17 4 18 40 9 22 -6 40 -14 40 -18 0 -15 -49 -20 -224 -20 -99 0 -176 -3 -172
-7 4 -5 22 -8 39 -8 31 0 32 -2 34 -42 l3 -43 -70 0 -70 0 0 36 c0 45 -17 62
-66 67 l-39 4 43 1 c30 2 42 6 42 17 0 11 11 15 40 15 33 0 40 3 40 20 0 17 7
20 40 20 22 0 40 5 40 10 0 6 18 10 40 10 33 0 40 -3 40 -20z m3260 10 c8 -5
11 -10 5 -10 -5 0 -17 5 -25 10 -8 5 -10 10 -5 10 6 0 17 -5 25 -10z m-2460
-20 c0 -5 -7 -10 -15 -10 -8 0 -15 5 -15 10 0 6 7 10 15 10 8 0 15 -4 15 -10z
m1040 0 c0 -5 -18 -10 -40 -10 -22 0 -40 5 -40 10 0 6 18 10 40 10 22 0 40 -4
40 -10z m-2690 -36 c0 -14 -6 -31 -13 -39 -12 -11 -14 -7 -15 26 -1 29 2 39
13 39 9 0 15 -10 15 -26z m4535 16 c-3 -5 -12 -10 -18 -10 -7 0 -6 4 3 10 19
12 23 12 15 0z m-135 -20 c8 -5 11 -10 5 -10 -5 0 -17 5 -25 10 -8 5 -10 10
-5 10 6 0 17 -5 25 -10z m99 6 c-2 -2 -15 -9 -29 -15 -24 -11 -24 -11 -6 3 16
13 49 24 35 12z m-3586 -63 c-13 -2 -33 -2 -45 0 -13 2 -3 4 22 4 25 0 35 -2
23 -4z m0 -40 c-13 -2 -33 -2 -45 0 -13 2 -3 4 22 4 25 0 35 -2 23 -4z m-463
-23 c0 -5 -18 -10 -40 -10 -22 0 -40 5 -40 10 0 6 18 10 40 10 22 0 40 -4 40
-10z m3525 -110 c-3 -5 -12 -10 -18 -10 -7 0 -6 4 3 10 19 12 23 12 15 0z
m1300 -80 c3 -5 1 -10 -4 -10 -6 0 -11 5 -11 10 0 6 2 10 4 10 3 0 8 -4 11
-10z m-49 -30 c50 0 64 3 64 15 0 20 6 19 30 -5 12 -12 18 -25 15 -30 -3 -5 0
-12 6 -16 8 -4 9 -3 5 4 -4 7 -2 12 4 12 6 0 14 -8 17 -17 4 -10 15 -27 26
-38 29 -31 92 -177 81 -188 -8 -8 -177 92 -201 119 -12 13 -26 24 -31 24 -16
0 -73 70 -66 82 4 6 3 8 -3 5 -11 -7 -24 25 -22 53 1 11 3 10 6 -2 4 -15 16
-18 69 -18z m-146 -15 c0 -8 5 -15 11 -15 5 0 8 -4 5 -9 -5 -8 28 -39 129
-123 23 -18 93 -61 157 -96 106 -57 124 -64 190 -69 67 -5 125 4 203 32 50 17
-57 -64 -111 -85 -65 -25 -186 -32 -281 -16 -39 6 -53 5 -53 -3 0 -22 56 -34
165 -35 107 0 208 19 243 47 20 16 26 0 9 -26 -24 -37 -131 -104 -177 -112
-86 -14 -59 -55 80 -125 95 -47 171 -70 235 -70 51 0 43 -16 -22 -42 -47 -18
-77 -22 -153 -22 -52 0 -116 4 -142 8 -46 7 -51 11 -105 87 -31 43 -62 79 -70
79 -20 0 -17 -7 33 -78 59 -84 144 -262 199 -417 12 -35 33 -118 40 -164 6
-39 5 -43 -7 -30 -17 18 -108 148 -108 155 0 15 -65 94 -74 91 -12 -4 -9 -38
3 -47 4 -3 22 -32 41 -65 30 -53 75 -120 90 -135 3 -3 14 -18 24 -34 44 -69
239 -250 335 -310 28 -18 40 -31 33 -38 -14 -14 -172 -11 -217 5 -22 8 -56 24
-75 36 -40 24 -60 27 -60 8 0 -8 22 -26 48 -40 64 -35 74 -48 112 -142 18 -44
63 -126 101 -182 67 -100 76 -125 31 -83 -12 11 -25 20 -29 20 -5 0 -51 40
-103 90 -87 81 -120 104 -120 82 0 -5 37 -47 83 -94 57 -59 120 -110 207 -167
69 -45 125 -88 125 -94 0 -28 -98 -15 -175 24 -46 23 -84 65 -160 177 -34 50
-66 92 -71 92 -17 0 -9 -34 18 -74 72 -108 149 -214 176 -243 17 -18 28 -35
25 -38 -7 -8 -103 -34 -142 -40 -26 -4 -30 0 -54 58 -15 34 -44 96 -66 137
-21 41 -58 113 -82 160 -81 158 -141 251 -180 277 -42 27 -39 6 9 -64 78 -115
164 -275 292 -548 14 -29 13 -30 -14 -42 -15 -6 -49 -13 -75 -15 l-48 -3 -27
76 c-26 70 -48 113 -107 215 -13 22 -33 70 -45 105 -11 35 -33 88 -48 119 -16
30 -33 84 -40 120 -18 99 -47 182 -85 246 -19 33 -42 88 -50 124 -8 36 -19 77
-25 93 -7 18 -7 27 0 27 5 0 26 -35 45 -77 56 -126 68 -148 79 -143 11 6 11
13 1 125 l-7 80 40 -45 c44 -48 122 -193 152 -279 11 -30 26 -65 33 -76 8 -12
24 -53 36 -91 25 -84 57 -141 71 -127 14 14 -30 161 -75 250 -20 39 -36 74
-36 77 0 14 -84 175 -115 221 -47 68 -65 88 -102 114 -18 12 -33 28 -33 34 0
7 -29 72 -65 145 -62 125 -90 171 -175 287 -38 50 -166 178 -207 206 -22 15
-25 28 -82 371 -4 26 -4 53 0 60 7 10 9 10 9 1 0 -17 25 -16 42 0 7 8 18 12
25 10 6 -2 21 5 33 17 13 13 30 20 40 17 13 -3 17 0 13 9 -3 10 10 14 54 16
40 2 57 7 56 16 -2 8 13 12 52 12 44 0 53 3 49 15 -4 8 -1 15 5 15 6 0 11 -7
11 -15z m-3313 -201 c-3 -3 -12 -4 -19 -1 -8 3 -5 6 6 6 11 1 17 -2 13 -5z
m2549 -22 c5 -5 42 -19 82 -32 41 -13 79 -29 86 -35 7 -7 18 -44 25 -81 25
-145 51 -309 61 -402 7 -53 19 -163 29 -244 9 -82 14 -148 11 -148 -3 0 -13
13 -23 29 -16 27 -125 132 -261 250 -110 95 -236 145 -351 139 -83 -4 -111
-21 -147 -92 -11 -21 -23 -34 -28 -30 -16 18 -83 257 -70 249 5 -3 18 9 31 26
18 26 19 33 8 40 -10 6 -1 9 26 10 101 3 234 18 280 32 120 38 250 87 248 94
-2 4 -18 12 -35 16 -104 25 -168 49 -168 62 0 8 6 15 13 15 6 0 34 11 61 25
27 14 55 25 61 25 7 0 18 7 25 15 8 10 21 13 34 9 19 -6 18 -4 -4 14 -14 12
-20 21 -14 22 5 0 14 -4 20 -8z m-5151 -32 c-3 -5 -12 -10 -18 -10 -7 0 -6 4
3 10 19 12 23 12 15 0z m2425 -35 c0 -2 -6 -5 -13 -8 -8 -3 -14 1 -14 8 0 7 6
11 14 8 7 -3 13 -6 13 -8z m2523 -103 c9 -1 17 -10 18 -19 0 -11 3 -13 6 -5 5
14 51 16 72 3 12 -8 8 -11 -15 -16 -16 -3 -42 -10 -59 -15 -16 -5 -57 -12 -90
-15 -58 -5 -59 -5 -30 9 25 12 27 15 13 21 -10 4 -18 11 -18 16 0 5 11 4 25
-1 15 -6 26 -6 30 0 4 6 -3 10 -15 10 -12 0 -19 4 -16 8 4 7 28 8 79 4z m-156
-38 c-3 -3 -12 -4 -19 -1 -8 3 -5 6 6 6 11 1 17 -2 13 -5z m28 -14 c-27 -12
-43 -12 -25 0 8 5 22 9 30 9 10 0 8 -3 -5 -9z m-207 -17 c-10 -2 -26 -2 -35 0
-10 3 -2 5 17 5 19 0 27 -2 18 -5z m875 -39 l42 -8 -33 -4 c-18 -2 -40 2 -48
9 -12 9 -14 7 -14 -16 0 -16 -3 -26 -6 -22 -4 3 -3 23 1 44 5 21 10 31 12 22
3 -10 20 -20 46 -25z m-820 19 c-7 -2 -21 -2 -30 0 -10 3 -4 5 12 5 17 0 24
-2 18 -5z m-3983 -33 c0 -5 -2 -10 -4 -10 -3 0 -8 5 -11 10 -3 6 -1 10 4 10 6
0 11 -4 11 -10z m4838 -26 c26 -5 30 -39 6 -48 -27 -10 -71 -7 -82 7 -6 7 -9
22 -6 33 6 21 14 22 82 8z m-938 -10 c0 -2 -7 -4 -15 -4 -8 0 -15 4 -15 10 0
5 7 7 15 4 8 -4 15 -8 15 -10z m-199 -14 c10 -6 19 -18 19 -26 0 -8 4 -13 9
-9 5 3 12 -4 16 -15 8 -24 25 -27 25 -3 0 14 2 14 20 -2 11 -10 20 -26 20 -36
0 -9 4 -19 8 -21 9 -3 60 -135 81 -208 50 -179 90 -439 91 -598 0 -115 -9
-116 -67 -6 -42 79 -52 115 -91 329 -37 201 -103 468 -129 523 -9 19 -23 32
-34 32 -20 0 -26 -24 -9 -35 25 -15 151 -498 150 -575 -1 -23 -2 -24 -14 -7
-8 10 -22 51 -32 90 -22 92 -69 238 -97 301 -12 27 -43 95 -69 150 -41 91 -45
102 -30 114 19 15 106 16 133 2z m1280 -59 c31 -27 80 -80 111 -118 57 -71
158 -230 158 -250 0 -6 13 -35 28 -64 76 -147 96 -244 30 -148 -20 30 -58 74
-83 99 -25 24 -45 48 -45 53 0 14 -69 107 -119 159 -25 27 -60 53 -78 59 -25
8 -33 17 -38 42 -2 18 -9 61 -15 97 -6 36 -13 77 -16 93 -3 15 -2 27 3 27 5 0
34 -22 64 -49z m-1477 23 c8 -3 35 -47 59 -97 89 -182 119 -248 128 -277 5
-17 13 -43 18 -59 8 -24 7 -29 -5 -24 -15 5 -209 393 -220 439 -7 26 -4 27 20
18z m1361 -4 c3 -5 1 -10 -4 -10 -6 0 -11 5 -11 10 0 6 2 10 4 10 3 0 8 -4 11
-10z m-14 -31 c13 -15 17 -30 12 -48 -9 -39 -13 -39 -13 1 l0 35 -45 -7 c-51
-8 -55 -6 -48 21 8 28 69 26 94 -2z m-4887 -7 c2 -4 -4 -8 -14 -8 -10 0 -16 4
-14 8 3 4 9 8 14 8 5 0 11 -4 14 -8z m4876 -48 c0 -8 -5 -12 -10 -9 -6 4 -8
11 -5 16 9 14 15 11 15 -7z m-1553 -81 c50 -91 279 -459 312 -502 15 -20 26
-49 27 -70 1 -20 5 -88 9 -151 5 -72 3 -151 -4 -210 -13 -106 -40 -215 -51
-203 -4 4 -15 51 -24 103 -28 156 -76 282 -153 401 l-23 35 22 86 c21 82 20
114 -2 92 -6 -6 -19 -42 -30 -81 -24 -89 -113 -243 -139 -243 -4 0 -6 67 -3
149 4 130 2 162 -18 250 -13 56 -27 101 -31 101 -18 0 -20 -25 -4 -92 9 -39
13 -73 9 -77 -8 -7 -233 227 -275 287 -17 24 -28 46 -25 49 8 9 245 113 291
128 66 22 71 20 112 -52z m-2447 13 c0 -2 -7 -7 -16 -10 -8 -3 -12 -2 -9 4 6
10 25 14 25 6z m3430 -50 c94 -41 147 -76 259 -175 121 -105 177 -167 216
-236 68 -121 74 -334 16 -632 -18 -90 -71 -239 -91 -253 -4 -3 -9 -9 -11 -15
-14 -35 -56 -95 -66 -95 -7 0 -13 -7 -13 -15 0 -8 -7 -15 -15 -15 -9 0 -18 -6
-21 -13 -2 -7 -21 -14 -42 -15 -20 -2 -45 -5 -56 -8 -11 -4 -16 -2 -12 4 4 6
-2 8 -16 4 -14 -3 -19 -2 -14 6 4 7 1 12 -8 12 -9 0 -16 5 -16 11 0 6 -14 9
-32 7 -21 -2 -32 -9 -34 -21 -4 -27 -12 -33 -27 -18 -12 12 -14 16 -16 51 0
11 -6 20 -12 20 -5 0 -7 -4 -4 -10 3 -5 2 -10 -2 -10 -5 0 -15 17 -22 38 -8
20 -20 44 -27 52 -7 9 -23 45 -34 82 -23 76 -108 286 -145 359 -24 47 -25 53
-14 116 8 44 9 114 5 203 -6 121 -15 189 -45 344 -7 40 -5 60 15 120 46 142
126 171 284 102z m-3630 -10 c0 -2 -9 -6 -20 -9 -11 -3 -18 -1 -14 4 5 9 34
13 34 5z m4378 -71 c87 -78 185 -243 223 -374 l19 -65 -103 102 c-56 56 -119
113 -139 127 -38 26 -39 28 -53 135 -3 25 -8 62 -12 83 -3 22 -2 37 5 37 5 0
33 -20 60 -45z m-2186 -16 c21 -11 46 -32 112 -91 l41 -37 -51 -1 c-52 0 -164
34 -210 65 -27 17 -24 23 26 57 29 20 54 22 82 7z m-217 -139 c4 -6 24 -19 46
-31 22 -11 37 -24 34 -29 -6 -10 -63 7 -86 26 -8 8 -22 14 -30 13 -8 0 -6 -4
6 -9 15 -7 16 -9 4 -9 -9 -1 -22 6 -29 14 -7 8 -9 15 -4 15 5 0 3 4 -4 9 -8 5
0 8 22 9 19 1 38 -3 41 -8z m-90 -70 c75 -24 217 -50 276 -51 24 -1 55 -4 68
-8 22 -6 22 -7 7 -20 -24 -20 -208 -26 -343 -12 -106 11 -259 43 -272 57 -3 4
1 4 9 2 8 -3 24 2 34 11 14 12 20 13 23 4 3 -7 11 -13 20 -13 8 0 13 6 10 13
-6 17 53 45 83 40 14 -3 52 -13 85 -23z m2505 -37 c45 -31 180 -174 219 -232
82 -122 156 -289 137 -308 -2 -2 -18 16 -35 41 -17 25 -67 81 -110 125 -62 62
-90 82 -131 96 -37 12 -55 14 -63 6 -13 -13 -15 -11 53 -44 65 -31 172 -129
230 -210 48 -67 120 -196 120 -216 0 -14 -61 46 -176 175 -85 94 -148 144
-183 143 l-26 0 30 -22 c60 -44 199 -184 274 -276 174 -215 226 -296 270 -421
10 -30 22 -63 26 -72 6 -14 2 -18 -18 -18 -18 0 -28 7 -35 28 -8 23 -35 66
-114 186 -62 93 -151 186 -209 217 -37 20 -20 -17 31 -65 64 -60 160 -187 222
-291 54 -90 52 -97 -22 -110 -38 -6 -41 -4 -102 57 -35 35 -80 78 -100 96 -25
21 -38 41 -38 57 0 61 -112 307 -143 313 -27 5 -21 -22 23 -106 22 -42 50
-106 61 -142 22 -70 61 -308 53 -322 -3 -4 -13 -8 -24 -8 -23 0 -63 67 -85
145 -42 144 -168 385 -201 385 -8 0 -14 -4 -14 -8 0 -4 31 -70 70 -146 65
-128 97 -212 87 -222 -2 -3 -32 33 -65 79 -33 46 -79 96 -101 111 -23 16 -41
29 -41 30 53 303 70 464 77 724 4 169 9 242 17 242 6 0 23 -8 36 -17z m-1860
-103 c5 0 16 -10 24 -22 15 -23 12 -96 -9 -255 -11 -75 6 -70 100 28 74 77 77
80 96 63 78 -71 159 -345 159 -540 0 -64 3 -84 14 -84 12 0 49 89 75 180 5 19
18 58 29 87 23 59 36 153 34 233 l-1 55 13 -57 c7 -32 18 -63 23 -70 9 -11 18
-57 26 -133 2 -11 8 -30 15 -41 6 -12 18 -81 25 -153 7 -72 16 -134 20 -137 7
-8 67 18 67 29 0 5 -4 6 -9 3 -5 -4 -7 3 -4 15 3 12 11 18 19 15 10 -4 14 5
15 32 l1 37 9 -33 c5 -18 14 -30 19 -27 6 4 10 -1 10 -10 0 -9 7 -30 16 -47 9
-17 27 -59 39 -92 13 -34 33 -86 44 -116 12 -30 21 -63 21 -73 0 -10 5 -15 11
-11 6 4 10 -1 8 -12 -1 -11 3 -32 10 -48 6 -16 14 -44 17 -63 3 -19 12 -55 19
-80 8 -25 11 -51 8 -59 -3 -8 -1 -14 4 -14 5 0 9 -8 9 -17 1 -10 4 -43 8 -74
8 -66 6 -68 -86 -107 -163 -70 -608 -338 -608 -367 0 -6 11 -22 25 -35 28 -26
115 -161 115 -179 0 -5 -9 -15 -20 -21 -11 -6 -58 -39 -104 -73 -47 -34 -111
-80 -142 -102 -65 -45 -198 -154 -369 -300 -171 -147 -159 -139 -185 -125 -43
23 -87 4 -160 -71 -69 -70 -92 -84 -83 -51 2 10 0 34 -6 53 -10 33 -11 32 -5
-12 5 -46 5 -46 -26 -44 -17 1 -38 12 -50 25 -15 18 -20 19 -20 7 0 -9 10 -23
22 -31 12 -9 19 -18 16 -21 -3 -4 -17 5 -30 18 -26 26 -33 71 -10 62 9 -3 12
0 9 9 -8 19 39 63 47 44 3 -7 3 -3 0 9 -3 16 1 23 16 28 11 3 20 12 20 18 0 7
26 38 57 70 37 38 53 61 47 67 -15 15 -107 -47 -290 -194 -28 -22 -60 -37
-101 -45 -57 -11 -83 -25 -83 -44 0 -5 7 -7 15 -4 8 4 17 2 20 -2 7 -12 -42
-23 -66 -16 -11 4 -31 18 -45 32 -21 21 -28 23 -35 12 -7 -11 -11 -10 -23 6
-20 26 -20 35 2 35 14 0 15 2 2 10 -8 5 -24 10 -34 10 -10 0 -25 8 -32 18 -8
10 -13 12 -14 5 0 -17 -50 5 -68 29 -7 10 -26 18 -43 18 -16 0 -29 4 -29 8 0
5 -18 15 -40 22 -22 7 -40 19 -40 27 0 7 -4 13 -10 13 -5 0 -10 9 -10 20 0 11
-4 20 -10 20 -5 0 -10 -9 -10 -20 0 -33 -17 -23 -24 15 -4 19 -22 52 -41 72
-22 25 -33 44 -29 56 3 11 0 17 -10 17 -9 0 -16 6 -16 13 -1 18 -53 54 -58 39
-6 -18 -22 -15 -22 4 0 13 7 15 35 11 21 -4 33 -2 30 4 -8 11 19 39 37 39 8 0
18 -4 23 -9 6 -5 25 -12 43 -16 28 -6 32 -4 32 14 0 25 -49 48 -130 62 -103
17 -159 32 -154 41 3 4 -4 8 -14 8 -35 0 -128 48 -155 80 -34 40 -34 58 2 222
43 195 55 293 48 408 -5 92 -4 101 11 95 131 -52 704 -87 689 -42 -2 6 -38 25
-80 42 -89 36 -156 75 -157 91 0 7 -17 19 -37 28 -21 8 -48 23 -61 33 l-22 18
20 40 20 39 0 -42 c0 -23 5 -42 10 -42 6 0 10 -6 10 -14 0 -7 9 -16 20 -19 11
-3 20 -1 20 4 0 5 -7 9 -15 9 -8 0 -15 4 -15 10 0 5 8 7 18 3 14 -5 15 -3 5 8
-7 7 -13 23 -13 36 0 13 -4 23 -10 23 -5 0 -10 9 -10 20 0 11 5 20 10 20 6 0
10 -4 10 -10 0 -5 23 -10 50 -10 28 0 50 -4 50 -10 0 -5 5 -10 11 -10 8 0 8 4
0 14 -9 11 -9 15 1 19 7 2 -8 2 -34 -1 -34 -3 -51 0 -62 11 -19 18 -11 27 23
26 14 0 20 -3 14 -6 -21 -8 -15 -23 8 -23 15 0 19 4 15 16 -5 13 -2 15 16 9
51 -15 68 -17 68 -6 0 6 -10 11 -23 11 -13 0 -27 4 -32 9 -9 8 -56 17 -122 24
-13 1 -23 6 -23 10 0 12 99 -2 134 -19 16 -8 39 -14 52 -14 13 0 25 -4 28 -9
3 -5 18 -12 33 -16 16 -3 37 -14 47 -23 11 -9 16 -11 12 -4 -4 7 -1 12 9 12
10 0 13 5 9 12 -5 8 4 9 32 5 123 -21 116 -21 113 -2 -3 11 -31 32 -69 51 -36
19 -76 41 -89 51 -13 10 -44 26 -69 36 -49 19 -173 97 -210 131 -21 19 -23 26
-17 76 11 88 20 101 168 233 47 43 91 76 97 72 5 -3 10 1 10 9 0 9 7 16 16 16
10 0 32 16 50 35 23 22 34 29 34 18 0 -9 6 -13 14 -10 9 4 16 -4 20 -25 13
-66 10 -71 -106 -175 -115 -101 -228 -221 -228 -242 0 -48 115 45 376 304 233
232 270 277 289 353 11 43 15 47 51 55 143 31 450 110 482 123 96 41 168 82
176 101 8 18 12 19 24 7 7 -8 18 -14 22 -14z m-1091 -165 c7 -7 -82 -6 -118 1
-24 5 -29 10 -21 19 9 11 23 10 72 -1 34 -8 64 -17 67 -19z m-413 -80 c15 -14
25 -28 22 -31 -4 -3 -21 8 -40 25 -18 17 -28 31 -21 31 7 0 24 -11 39 -25z
m629 -135 c-14 -15 -22 -17 -38 -9 -16 9 -17 13 -6 20 20 13 31 11 23 -3 -4
-7 1 -5 11 4 25 23 33 13 10 -12z m1571 -159 c16 -49 16 -56 -1 -129 -24 -108
-25 -112 -36 -112 -5 0 -9 39 -9 88 0 74 -11 165 -36 307 -7 40 58 -83 82
-154z m-2636 2 c13 -16 54 -63 92 -105 l68 -78 -22 -37 c-45 -80 -72 -93 -83
-43 -4 17 -13 30 -21 30 -9 0 -12 4 -9 10 3 5 -3 20 -15 32 -29 32 -90 159
-90 189 0 37 48 38 80 2z m-225 -205 c28 -42 86 -119 128 -172 43 -53 80 -102
83 -109 2 -7 -7 -24 -21 -37 -48 -45 -26 -64 40 -33 l35 17 53 -51 c129 -125
382 -309 485 -354 29 -13 52 -25 52 -28 0 -3 -37 -5 -82 -3 -79 3 -89 6 -201
62 -275 138 -591 394 -757 615 -59 78 -59 89 -3 121 26 14 59 34 73 44 37 26
59 12 115 -72z m477 -65 c18 -15 58 -50 88 -78 55 -49 277 -202 355 -244 l40
-21 -39 0 c-89 0 -323 88 -442 166 -89 59 -105 77 -95 109 11 34 44 95 52 95
4 0 22 -12 41 -27z m-886 -358 c10 -38 30 -101 46 -140 16 -38 41 -110 55
-160 14 -49 37 -118 50 -153 14 -35 22 -66 19 -70 -8 -8 -71 59 -125 133 -61
83 -123 193 -148 263 -38 104 -38 102 -17 101 55 -5 55 -6 56 166 l0 69 23
-69 c13 -39 32 -101 41 -140z m4311 133 c-3 -7 -5 -2 -5 12 0 14 2 19 5 13 2
-7 2 -19 0 -25z m-3907 -52 c95 -87 221 -187 310 -244 47 -30 101 -65 121 -79
19 -13 64 -39 100 -58 l64 -35 -50 0 c-72 0 -251 44 -310 75 -27 15 -84 45
-125 66 -82 43 -263 194 -291 245 -22 40 -6 63 47 70 21 3 39 6 41 8 13 13 46
-5 93 -48z m3294 32 c-3 -5 2 -15 12 -23 11 -7 16 -17 12 -21 -9 -9 -48 34
-48 52 0 8 6 11 15 8 8 -4 12 -10 9 -16z m-2687 -44 c-3 -3 -12 -4 -19 -1 -8
3 -5 6 6 6 11 1 17 -2 13 -5z m53 -28 c0 -2 -17 -3 -37 -3 -32 -1 -34 0 -13 6
21 7 50 4 50 -3z m2660 -10 c0 -8 -4 -18 -10 -21 -5 -3 -10 3 -10 14 0 12 5
21 10 21 6 0 10 -6 10 -14z m-2690 -16 c-8 -5 -19 -10 -25 -10 -5 0 -3 5 5 10
8 5 20 10 25 10 6 0 3 -5 -5 -10z m3720 -10 c0 -5 -4 -10 -10 -10 -5 0 -10 5
-10 10 0 6 5 10 10 10 6 0 10 -4 10 -10z m-1023 -37 c-3 -10 -5 -4 -5 12 0 17
2 24 5 18 2 -7 2 -21 0 -30z m43 33 c0 -3 -4 -8 -10 -11 -5 -3 -10 -1 -10 4 0
6 5 11 10 11 6 0 10 -2 10 -4z m1025 -16 c-11 -5 -33 -8 -50 -8 -29 1 -29 1 5
8 49 10 69 10 45 0z m-3860 -10 c3 -5 2 -10 -4 -10 -5 0 -13 5 -16 10 -3 6 -2
10 4 10 5 0 13 -4 16 -10z m2862 -37 c-3 -10 -5 -4 -5 12 0 17 2 24 5 18 2 -7
2 -21 0 -30z m-50 -5 c-3 -8 -6 -5 -6 6 -1 11 2 17 5 13 3 -3 4 -12 1 -19z
m-2781 -9 c3 -6 18 -8 33 -5 19 5 22 4 11 -3 -8 -6 -11 -13 -7 -17 3 -4 13 -1
22 6 22 18 19 3 -5 -22 -17 -19 -20 -19 -20 -5 0 9 -7 17 -15 17 -8 0 -15 5
-15 11 0 5 -5 7 -12 3 -6 -4 -8 -3 -4 4 3 5 0 13 -6 15 -9 4 -10 6 -1 6 6 1
15 -4 19 -10z m-1140 -60 c3 -6 1 -15 -6 -19 -9 -5 -9 -9 -1 -14 6 -4 11 -2
11 3 0 6 4 11 10 11 5 0 6 -7 3 -17 -4 -11 -3 -14 5 -9 8 4 16 -3 22 -20 6
-14 23 -45 39 -68 15 -22 40 -60 55 -82 15 -23 38 -52 51 -64 36 -34 31 -43
-10 -19 -42 25 -160 151 -182 194 -9 16 -19 32 -23 35 -9 7 0 80 11 80 4 0 11
-5 15 -11z m-106 -79 c0 -6 5 -8 10 -5 6 3 14 -4 19 -17 9 -23 200 -206 256
-245 17 -11 59 -36 95 -56 41 -22 77 -50 98 -78 42 -56 76 -93 136 -148 26
-24 45 -45 43 -47 -15 -16 -197 78 -247 127 -8 8 -36 31 -61 50 -26 19 -79 70
-119 112 -69 74 -100 93 -100 63 0 -7 47 -63 104 -122 58 -60 131 -145 164
-189 32 -44 73 -95 89 -112 38 -40 31 -42 -22 -6 -206 138 -350 300 -487 549
-57 103 -66 134 -39 134 11 0 25 -8 31 -17 9 -15 10 -12 6 15 -5 29 -4 31 9
18 8 -8 15 -20 15 -26z m780 -31 c0 -5 -4 -7 -10 -4 -5 3 -10 2 -10 -2 0 -9
-61 -35 -67 -29 -6 5 60 46 75 46 6 0 12 -5 12 -11z m-910 -35 c0 -8 15 -29
34 -47 19 -18 40 -43 47 -57 7 -14 41 -68 76 -121 35 -53 63 -106 63 -118 0
-12 54 -110 120 -218 125 -203 125 -205 30 -134 -41 30 -83 76 -127 140 -18
25 -36 51 -41 56 -24 30 -141 250 -165 310 -46 118 -65 205 -44 205 4 0 7 -7
7 -16z m731 -7 c-10 -9 -11 -8 -5 6 3 10 9 15 12 12 3 -3 0 -11 -7 -18z m222
1 c3 -8 -4 -13 -19 -13 -28 0 -32 11 -6 18 9 3 18 5 18 6 1 0 4 -5 7 -11z
m-983 -19 c0 -5 -4 -9 -10 -9 -5 0 -10 7 -10 16 0 8 5 12 10 9 6 -3 10 -10 10
-16z m1078 7 c3 -3 -9 -4 -27 -2 -17 2 -34 6 -38 9 -3 4 9 5 27 2 18 -2 35 -6
38 -9z m-1111 -30 c-13 -33 36 -147 142 -336 30 -52 70 -120 91 -150 35 -52
80 -142 80 -161 0 -58 -240 210 -348 389 -18 29 -32 57 -32 62 0 6 -4 10 -10
10 -5 0 -15 19 -21 43 -13 42 -14 51 -10 97 l2 25 13 -23 13 -24 32 41 c32 40
59 55 48 27z m1045 -179 c14 -22 8 -38 -34 -90 -101 -121 -159 -169 -142 -114
4 12 7 28 7 35 0 6 4 12 9 12 4 0 8 7 8 15 0 8 4 23 10 33 5 9 14 29 20 45 5
15 17 27 26 27 10 0 14 6 11 14 -3 8 2 16 15 19 12 4 17 10 13 18 -6 9 -1 10
21 5 16 -4 32 -13 36 -19z m33 -197 c3 -5 1 -10 -4 -10 -6 0 -11 5 -11 10 0 6
2 10 4 10 3 0 8 -4 11 -10z m-41 -90 c-6 -6 -15 -5 -24 1 -12 9 -12 10 4 5 14
-5 17 -3 12 11 -6 15 -5 16 5 6 8 -8 10 -16 3 -23z m-37 -16 c-3 -3 -12 -4
-19 -1 -8 3 -5 6 6 6 11 1 17 -2 13 -5z m33 -18 c0 -2 -7 -6 -15 -10 -8 -3
-15 -1 -15 4 0 6 7 10 15 10 8 0 15 -2 15 -4z m-500 -118 c0 -19 -2 -20 -10
-8 -13 19 -13 30 0 30 6 0 10 -10 10 -22z m-81 -88 c38 -27 73 -50 78 -50 27
0 53 -44 68 -117 9 -43 25 -116 35 -163 36 -160 104 -602 129 -830 26 -244 63
-528 76 -591 8 -38 15 -85 15 -102 0 -18 11 -86 25 -152 13 -65 23 -120 21
-122 -2 -3 -100 35 -331 126 -44 18 -168 64 -275 102 -107 39 -201 77 -209 84
-16 16 -19 13 44 32 63 20 39 76 -113 259 -29 35 -62 70 -73 77 -11 8 -39 33
-63 55 -24 23 -46 39 -49 36 -3 -3 -18 8 -34 24 -15 16 -37 32 -48 36 -11 4
-38 22 -59 41 -38 34 -39 36 -20 49 18 13 17 14 -6 9 -19 -3 -27 1 -35 19 -5
13 -20 24 -32 26 -23 3 -31 26 -13 35 6 3 5 4 -2 3 -16 -4 -90 32 -100 48 -4
6 -6 16 -4 22 3 6 -6 16 -20 23 -25 11 -30 26 -15 51 14 21 2 33 -15 15 -9 -8
-12 -19 -9 -25 9 -15 -11 -12 -24 4 -9 11 -9 15 1 19 9 3 0 17 -24 41 -31 30
-38 44 -38 76 0 22 5 40 10 40 14 0 13 19 -2 35 -46 47 -62 85 -38 85 6 0 10
-4 10 -10 0 -22 18 -8 23 18 4 17 1 31 -9 38 -11 9 -12 13 -3 16 8 3 3 19 -15
52 -34 61 -30 66 94 124 52 24 169 80 260 124 251 122 318 154 402 191 42 19
108 56 147 81 78 50 93 54 139 30 18 -8 42 -14 53 -12 22 3 22 3 -4 34 -26 31
-33 44 -22 44 3 0 36 -22 74 -50z m3116 -148 c28 -19 166 -216 161 -228 -6
-16 28 -56 40 -46 3 4 1 -4 -7 -18 l-14 -25 -3 23 c-2 12 -8 22 -14 22 -6 0
-7 -7 -3 -17 4 -10 10 -28 12 -41 4 -18 2 -21 -12 -16 -15 6 -17 3 -13 -20 6
-31 -7 -44 -20 -19 -8 14 -12 8 -17 -30 -4 -28 -17 -57 -31 -72 -13 -14 -24
-30 -24 -36 0 -13 -17 -11 -24 4 -3 6 -5 3 -4 -8 3 -25 -32 -85 -49 -85 -7 0
-13 -7 -13 -15 0 -8 -4 -15 -10 -15 -5 0 -10 -6 -10 -13 0 -7 -11 -21 -25 -31
-14 -10 -25 -27 -25 -37 0 -11 -6 -19 -14 -19 -8 0 -16 -7 -20 -15 -3 -8 -13
-15 -21 -15 -9 0 -13 -5 -10 -10 7 -12 -49 -81 -137 -172 -32 -33 -58 -62 -58
-65 0 -3 -11 -14 -25 -25 -14 -11 -25 -26 -25 -34 0 -8 -7 -14 -15 -14 -8 0
-15 -4 -15 -9 0 -5 -21 -28 -46 -52 -25 -24 -78 -77 -119 -116 -40 -40 -90
-80 -111 -89 -50 -21 -139 -31 -129 -14 4 7 23 10 44 8 31 -3 37 0 39 17 0 11
-2 15 -6 8 -7 -11 -64 -17 -131 -14 -26 1 -32 5 -27 17 3 8 2 12 -4 9 -6 -3
-28 4 -50 16 -22 12 -42 20 -46 17 -3 -3 -6 -22 -7 -41 -1 -19 -6 -33 -10 -30
-5 3 -6 21 -2 39 5 28 3 34 -11 34 -10 0 -14 -5 -11 -14 3 -7 0 -19 -6 -26 -9
-10 -9 -14 1 -17 6 -3 12 -9 12 -15 0 -6 -6 -6 -15 2 -10 8 -13 21 -8 39 10
40 6 61 -16 81 -25 20 -27 35 -6 26 8 -3 15 -2 15 3 0 5 -9 11 -20 14 -15 4
-20 14 -20 37 0 27 -3 31 -19 27 -14 -3 -17 0 -14 14 3 12 0 19 -8 19 -19 0
-46 43 -30 48 18 6 2 22 -22 22 -17 1 -19 2 -7 9 24 14 68 24 50 12 -8 -5 -11
-13 -7 -18 9 -8 27 15 27 35 0 14 -36 16 -45 2 -3 -5 -16 -9 -28 -9 -20 1 -20
2 -2 6 11 3 24 9 30 14 5 5 17 9 27 9 19 0 24 15 9 25 -6 3 -4 17 4 33 8 15
17 39 20 54 4 22 12 28 41 34 27 5 39 14 52 40 12 27 25 37 56 45 118 30 140
47 151 111 5 29 19 52 49 80 83 82 265 219 604 455 74 52 159 100 182 102 3 0
10 -3 15 -7z m-2151 -42 c-6 -6 -21 -6 -39 -1 -30 9 -30 9 10 10 25 1 36 -2
29 -9z m-34 -20 c0 -12 -60 -23 -91 -17 -15 3 -6 5 21 7 38 2 41 3 20 10 -22
7 -21 8 13 9 20 1 37 -3 37 -9z m1886 -2 c7 -11 -21 -38 -40 -38 -6 0 -2 6 9
12 30 16 31 18 15 28 -9 6 -10 10 -3 10 6 0 15 -5 19 -12z m-81 -78 c-3 -5
-11 -10 -16 -10 -6 0 -7 5 -4 10 3 6 11 10 16 10 6 0 7 -4 4 -10z m-80 -20
c-3 -5 -12 -10 -18 -10 -7 0 -6 4 3 10 19 12 23 12 15 0z m35 -25 c0 -3 -9
-16 -21 -28 l-21 -22 13 28 c11 23 29 37 29 22z m-40 -15 c0 -5 -5 -10 -11
-10 -5 0 -7 5 -4 10 3 6 8 10 11 10 2 0 4 -4 4 -10z m-30 -29 c0 -5 -7 -11
-14 -14 -10 -4 -13 -1 -9 9 6 15 23 19 23 5z m-40 -21 c6 -11 9 -20 8 -20 -2
0 -11 9 -21 20 -9 11 -13 20 -7 20 5 0 14 -9 20 -20z m-40 -35 c0 -2 -9 -9
-19 -15 -14 -7 -22 -7 -27 2 -4 6 -3 8 4 4 6 -3 13 -2 17 4 6 10 25 14 25 5z
m787 -32 c-10 -22 -13 -24 -15 -9 -2 10 2 22 10 27 19 12 19 12 5 -18z m-832
-23 c3 -6 -1 -7 -9 -4 -18 7 -21 14 -7 14 6 0 13 -4 16 -10z m-101 -55 c-4 -8
-11 -12 -16 -9 -6 4 -5 10 3 15 19 12 19 11 13 -6z m-1329 -15 c3 -6 -1 -7 -9
-4 -18 7 -21 14 -7 14 6 0 13 -4 16 -10z m40 -28 c-3 -3 -11 0 -18 7 -9 10 -8
11 6 5 10 -3 15 -9 12 -12z m-2245 -2 c0 -5 -4 -10 -10 -10 -5 0 -10 5 -10 10
0 6 5 10 10 10 6 0 10 -4 10 -10z m2334 -66 c9 -3 16 -11 16 -16 0 -6 -6 -5
-15 2 -8 6 -20 8 -26 4 -8 -4 -9 -3 -5 4 8 14 9 14 30 6z m611 -54 c4 -6 -6
-10 -22 -9 -25 0 -26 1 -8 9 11 5 21 9 22 9 1 1 5 -3 8 -9z m-65 -10 c-8 -6
-28 -7 -43 -4 -22 5 -32 1 -43 -14 -8 -11 -22 -19 -31 -17 -10 2 -22 4 -26 4
-18 2 6 21 36 30 45 13 127 14 107 1z m200 -15 c0 -2 -10 -10 -22 -16 -21 -11
-22 -11 -9 4 13 16 31 23 31 12z m-76 -21 c9 -24 7 -27 -9 -10 -17 17 -19 26
-6 26 5 0 12 -7 15 -16z m-3244 -49 c60 -39 224 -206 286 -294 32 -46 80 -112
106 -146 73 -98 166 -244 179 -282 6 -19 8 -50 4 -69 -8 -44 -4 -45 -210 60
-446 230 -718 383 -723 408 -10 50 155 276 250 342 26 18 58 12 108 -19z
m2830 -15 c0 -5 -5 -10 -11 -10 -5 0 -7 5 -4 10 3 6 8 10 11 10 2 0 4 -4 4
-10z m85 -71 c11 -16 1 -19 -13 -3 -7 8 -8 14 -3 14 5 0 13 -5 16 -11z m2 -64
c0 -8 -4 -12 -9 -9 -5 3 -6 10 -3 15 9 13 12 11 12 -6z m338 -243 c-3 -3 -11
0 -18 7 -9 10 -8 11 6 5 10 -3 15 -9 12 -12z m26 -91 c-8 -5 -11 -16 -7 -27 6
-16 7 -16 19 0 10 14 12 11 15 -21 l2 -38 -25 30 c-29 35 -32 65 -7 65 14 0
14 -2 3 -9z m69 -81 c0 -5 -2 -10 -4 -10 -3 0 -8 5 -11 10 -3 6 -1 10 4 10 6
0 11 -4 11 -10z m43 -62 l6 -20 -20 20 c-23 25 -24 33 -5 26 8 -3 16 -15 19
-26z m92 -58 c3 -5 1 -10 -4 -10 -6 0 -11 5 -11 10 0 6 2 10 4 10 3 0 8 -4 11
-10z m0 -39 c3 -5 2 -12 -3 -15 -5 -3 -9 1 -9 9 0 17 3 19 12 6z m134 -27 c10
-9 -55 -3 -69 6 -10 6 -2 7 25 3 22 -3 42 -7 44 -9z m61 12 c0 -2 -9 -6 -20
-9 -11 -3 -18 -1 -14 4 5 9 34 13 34 5z m-157 -13 c-7 -2 -19 -2 -25 0 -7 3
-2 5 12 5 14 0 19 -2 13 -5z m-3222 -153 c7 -15 13 -20 16 -12 3 6 9 12 15 12
6 0 8 -7 4 -15 -3 -8 -1 -15 5 -15 6 0 18 -7 26 -16 10 -9 25 -13 39 -10 12 3
26 2 29 -4 3 -5 -3 -10 -14 -10 -16 0 -18 -4 -12 -27 5 -16 13 -27 20 -26 6 2
10 -2 8 -9 -3 -18 35 -22 45 -4 10 18 38 22 38 6 0 -5 -7 -10 -16 -10 -13 0
-14 -3 -4 -15 7 -8 16 -13 20 -10 4 3 13 -2 20 -10 6 -7 17 -12 23 -10 7 3 19
0 27 -5 13 -9 13 -11 0 -19 -8 -6 -11 -14 -6 -18 5 -4 11 -2 13 5 8 23 31 12
53 -24 25 -43 20 -69 -11 -59 -15 5 -19 4 -15 -4 4 -6 13 -11 21 -11 8 0 23
-10 35 -22 14 -15 20 -18 20 -7 1 11 4 10 14 -3 7 -10 21 -18 31 -18 14 0 16
-6 11 -27 -5 -20 -4 -24 3 -13 9 13 14 12 37 -6 15 -11 26 -23 26 -27 -1 -4
-2 -17 -2 -28 0 -17 -5 -20 -21 -16 -15 4 -18 2 -10 -7 6 -7 7 -17 3 -22 -4
-4 1 -2 12 6 16 13 20 12 31 -3 7 -9 18 -17 24 -17 8 0 10 -8 6 -21 -5 -16 -3
-20 6 -17 19 7 49 -10 49 -27 0 -8 5 -15 11 -15 8 0 10 -17 7 -50 -3 -27 -1
-50 4 -50 5 0 6 5 3 10 -3 6 -2 10 4 10 6 0 13 -16 17 -35 4 -23 12 -35 23
-36 12 0 12 -2 -4 -9 -15 -6 -16 -9 -4 -9 9 -1 22 -12 29 -26 7 -13 18 -23 23
-22 6 1 16 -13 22 -31 6 -18 14 -29 18 -26 4 4 7 2 7 -4 0 -7 -4 -12 -10 -12
-5 0 -10 -9 -10 -20 0 -11 5 -20 11 -20 8 0 8 -5 -1 -15 -9 -11 -10 -18 -1
-29 9 -10 8 -15 -4 -20 -8 -3 -15 -12 -15 -21 0 -9 -7 -30 -16 -47 -9 -17 -16
-46 -17 -64 -1 -23 -7 -36 -18 -39 -9 -3 -22 -20 -29 -38 -24 -61 -41 -96 -50
-102 -6 -3 -10 -15 -10 -26 0 -10 -4 -19 -9 -19 -5 0 -11 -9 -14 -20 -6 -23
-49 -28 -73 -7 -39 33 -154 149 -154 155 0 12 -40 33 -50 27 -6 -4 -10 -1 -10
5 0 6 -11 15 -25 22 -13 6 -22 15 -19 20 3 5 0 16 -7 24 -10 12 -14 12 -20 2
-7 -10 -9 -9 -9 3 0 9 -11 22 -25 29 -14 7 -25 22 -25 32 0 10 -6 18 -13 18
-19 0 -49 35 -40 45 5 4 0 5 -9 2 -10 -4 -18 -2 -18 4 0 6 -18 28 -40 49 -22
21 -40 43 -40 49 0 6 -6 11 -14 11 -13 0 -28 22 -30 43 -1 5 -9 14 -19 21 -9
7 -17 18 -17 25 0 6 -7 14 -15 17 -8 4 -15 10 -15 16 0 8 -46 75 -61 88 -3 3
-5 22 -4 43 1 20 -2 37 -6 37 -4 0 -8 27 -8 60 0 32 -1 63 -4 67 -3 4 2 51 10
103 8 52 16 124 18 160 3 44 9 68 19 76 9 6 16 26 16 43 0 21 8 40 23 53 12
11 16 17 10 13 -14 -7 -16 -1 -7 31 4 16 13 21 44 20 31 0 41 -5 51 -26z m484
-78 c-3 -3 -11 0 -18 7 -9 10 -8 11 6 5 10 -3 15 -9 12 -12z m-317 -20 c3 -10
-10 -11 -46 -3 -2 1 0 6 3 12 9 13 37 8 43 -9z m367 8 c3 -6 -1 -7 -9 -4 -18
7 -21 14 -7 14 6 0 13 -4 16 -10z m-40 -10 c3 -5 1 -10 -4 -10 -6 0 -11 5 -11
10 0 6 2 10 4 10 3 0 8 -4 11 -10z m-668 -82 c-3 -8 -6 -5 -6 6 -1 11 2 17 5
13 3 -3 4 -12 1 -19z m843 -62 c0 -3 -4 -8 -10 -11 -5 -3 -10 -1 -10 4 0 6 5
11 10 11 6 0 10 -2 10 -4z m57 -198 c-3 -7 -5 -2 -5 12 0 14 2 19 5 13 2 -7 2
-19 0 -25z m35 -360 c-9 -9 -12 -7 -12 12 0 19 3 21 12 12 9 -9 9 -15 0 -24z"/>
<path d="M6408 8293 c7 -3 16 -2 19 1 4 3 -2 6 -13 5 -11 0 -14 -3 -6 -6z"/>
<path d="M1640 8350 c-39 -6 -33 -7 38 -8 49 -1 82 2 82 8 0 11 -50 11 -120 0z"/>
<path d="M5526 8334 c-13 -34 -7 -44 29 -44 26 0 35 4 36 18 0 15 2 14 10 -3
l9 -20 -3 20 c-1 12 -11 21 -25 23 -12 2 -22 8 -22 13 0 15 -27 10 -34 -7z"/>
<path d="M2008 8323 c6 -2 18 -2 25 0 6 3 1 5 -13 5 -14 0 -19 -2 -12 -5z"/>
<path d="M1940 8260 c0 -13 7 -20 20 -20 13 0 20 7 20 20 0 13 -7 20 -20 20
-13 0 -20 -7 -20 -20z"/>
<path d="M2080 8265 c0 -17 68 -20 179 -9 101 11 69 24 -59 24 -100 0 -120 -2
-120 -15z"/>
<path d="M2676 8271 c-18 -7 -18 -8 -2 -14 29 -11 46 -8 46 8 0 16 -14 18 -44
6z"/>
<path d="M3400 8270 c-41 -6 -39 -7 28 -8 42 -1 72 2 72 8 0 11 -30 11 -100 0z"/>
<path d="M2800 8255 c0 -12 20 -15 120 -15 100 0 120 3 120 15 0 13 -20 15
-120 15 -100 0 -120 -2 -120 -15z"/>
<path d="M1880 8166 c0 -54 4 -75 14 -79 22 -9 26 2 26 80 0 66 -2 73 -20 73
-18 0 -20 -7 -20 -74z"/>
<path d="M2240 8230 c0 -12 24 -12 60 0 21 7 19 8 -17 9 -24 1 -43 -3 -43 -9z"/>
<path d="M3920 8225 c0 -11 11 -15 40 -15 29 0 40 4 40 15 0 11 -11 15 -40 15
-29 0 -40 -4 -40 -15z"/>
<path d="M4210 8200 c0 -29 4 -40 15 -40 9 0 15 9 15 25 0 23 4 25 40 25 29 0
40 4 40 15 0 12 -13 15 -55 15 l-55 0 0 -40z"/>
<path d="M4400 8225 c0 -8 4 -15 9 -15 5 0 14 7 21 15 10 13 9 15 -9 15 -12 0
-21 -6 -21 -15z"/>
<path d="M2615 8170 c-7 -12 2 -30 16 -30 5 0 9 9 9 20 0 21 -15 27 -25 10z"/>
<path d="M3040 8115 c0 -11 11 -15 40 -15 29 0 40 4 40 15 0 11 -11 15 -40 15
-29 0 -40 -4 -40 -15z"/>
<path d="M5020 8040 c0 -33 3 -40 20 -40 17 0 20 7 20 40 0 33 -3 40 -20 40
-17 0 -20 -7 -20 -40z"/>
<path d="M5440 8040 l0 -40 80 0 c69 0 80 2 80 18 0 9 3 27 6 40 6 22 5 22
-80 22 l-86 0 0 -40z"/>
<path d="M1933 8000 c0 -41 2 -58 4 -37 2 20 2 54 0 75 -2 20 -4 3 -4 -38z"/>
<path d="M4775 8010 c-3 -5 1 -10 9 -10 9 0 16 5 16 10 0 6 -4 10 -9 10 -6 0
-13 -4 -16 -10z"/>
<path d="M3185 7990 c3 -5 8 -10 11 -10 2 0 4 5 4 10 0 6 -5 10 -11 10 -5 0
-7 -4 -4 -10z"/>
<path d="M6930 6489 c0 -6 18 -31 39 -56 45 -50 141 -232 166 -314 10 -30 25
-76 35 -104 10 -27 21 -70 25 -95 12 -82 25 -120 40 -120 43 0 -28 286 -111
452 -59 120 -84 156 -137 206 -49 44 -57 49 -57 31z"/>
<path d="M5468 6893 c6 -2 18 -2 25 0 6 3 1 5 -13 5 -14 0 -19 -2 -12 -5z"/>
<path d="M5603 6530 c-48 -19 -73 -103 -73 -247 0 -61 3 -118 6 -127 11 -28
34 -17 85 38 69 75 90 82 201 67 102 -15 135 -26 195 -70 24 -17 45 -31 48
-31 14 0 2 23 -26 53 -17 17 -48 57 -69 88 -69 100 -205 211 -281 228 -52 12
-57 12 -86 1z m76 -62 c6 -13 9 -15 7 -5 -6 21 -5 21 29 3 24 -12 25 -15 8
-20 -10 -3 -4 -4 14 -2 18 1 30 -1 27 -6 -3 -4 3 -8 13 -8 15 0 16 -2 3 -11
-12 -8 -11 -9 5 -5 15 4 33 -8 73 -48 70 -73 68 -80 -15 -70 -135 16 -198 2
-237 -50 -10 -15 -23 -26 -27 -26 -27 0 5 243 34 262 23 15 54 8 66 -14z"/>
<path d="M5738 6413 c7 -3 16 -2 19 1 4 3 -2 6 -13 5 -11 0 -14 -3 -6 -6z"/>
<path d="M5698 6403 c7 -3 16 -2 19 1 4 3 -2 6 -13 5 -11 0 -14 -3 -6 -6z"/>
<path d="M5608 6293 c7 -3 16 -2 19 1 4 3 -2 6 -13 5 -11 0 -14 -3 -6 -6z"/>
<path d="M5718 6134 c-15 -8 -42 -36 -60 -62 -30 -43 -33 -55 -37 -135 l-3
-89 70 -69 c89 -88 102 -113 102 -204 0 -52 4 -76 15 -85 12 -10 16 -8 25 15
10 26 15 213 5 203 -3 -2 -28 17 -56 43 -33 31 -49 52 -43 60 5 9 2 11 -8 6
-19 -7 -63 36 -53 52 3 6 1 11 -6 11 -15 0 -5 110 12 120 8 6 8 9 -2 12 -8 3
4 21 33 51 39 41 50 47 85 47 27 0 53 -9 79 -26 46 -32 84 -66 84 -77 0 -5 11
-23 25 -41 14 -18 25 -40 25 -49 0 -10 5 -17 11 -17 14 0 5 -98 -11 -114 -5
-5 -10 -17 -10 -26 0 -10 -6 -30 -14 -46 -8 -16 -22 -46 -31 -66 -10 -21 -21
-38 -26 -38 -5 0 -9 -18 -9 -40 0 -37 2 -40 20 -30 10 6 33 41 50 78 17 37 37
78 44 92 43 82 51 163 22 226 -27 56 -120 163 -170 193 -40 25 -127 28 -168 5z"/>
<path d="M5950 5236 c0 -2 13 -6 29 -8 17 -2 28 -1 25 4 -5 8 -54 12 -54 4z"/>
<path d="M4205 6500 c-3 -5 -1 -10 4 -10 6 0 11 5 11 10 0 6 -2 10 -4 10 -3 0
-8 -4 -11 -10z"/>
<path d="M5402 5390 c0 -14 2 -19 5 -12 2 6 2 18 0 25 -3 6 -5 1 -5 -13z"/>
<path d="M3373 4973 c9 -2 23 -2 30 0 6 3 -1 5 -18 5 -16 0 -22 -2 -12 -5z"/>
<path d="M3488 4973 c6 -2 18 -2 25 0 6 3 1 5 -13 5 -14 0 -19 -2 -12 -5z"/>
<path d="M3260 4054 c-23 -10 -30 -18 -23 -25 12 -12 133 8 133 22 0 10 -2 11
-45 14 -17 2 -46 -3 -65 -11z"/>
<path d="M4170 3946 c-137 -50 -185 -74 -267 -132 -34 -24 -64 -44 -68 -44 -3
0 -11 -5 -18 -10 -36 -30 -138 -100 -146 -100 -5 0 -14 -7 -21 -14 -6 -8 -52
-40 -101 -70 -61 -38 -100 -56 -122 -56 -45 0 -87 -21 -87 -43 0 -17 6 -18 53
-13 38 4 46 3 30 -4 -13 -5 -23 -11 -23 -12 0 -2 27 -3 59 -3 59 0 61 1 168
81 59 45 117 86 129 92 11 6 72 48 135 93 189 135 331 226 379 241 43 14 56
31 28 35 -7 1 -65 -18 -128 -41z m-334 -239 c-51 -41 -181 -117 -146 -85 38
35 133 98 148 98 7 0 10 5 7 10 -3 6 2 10 12 10 13 -1 7 -9 -21 -33z m-296
-197 c-24 -15 -36 -11 -14 4 10 8 21 12 24 10 2 -3 -2 -9 -10 -14z"/>
<path d="M3445 3410 c3 -5 15 -10 26 -10 10 0 19 5 19 10 0 6 -12 10 -26 10
-14 0 -23 -4 -19 -10z"/>
<path d="M3606 3295 c4 -8 11 -15 16 -15 6 0 5 6 -2 15 -7 8 -14 15 -16 15 -2
0 -1 -7 2 -15z"/>
<path d="M2405 5140 c-3 -6 1 -7 9 -4 18 7 21 14 7 14 -6 0 -13 -4 -16 -10z"/>
<path d="M960 3130 c0 -19 20 -27 33 -13 8 7 -11 33 -24 33 -5 0 -9 -9 -9 -20z"/>
<path d="M4273 2513 c9 -2 25 -2 35 0 9 3 1 5 -18 5 -19 0 -27 -2 -17 -5z"/>
<path d="M1237 2040 c-3 -11 -2 -20 3 -20 12 0 31 26 23 33 -11 12 -21 7 -26
-13z"/>
<path d="M1380 1889 c0 -5 5 -7 10 -4 6 3 10 8 10 11 0 2 -4 4 -10 4 -5 0 -10
-5 -10 -11z"/>
<path d="M1579 1693 c-1 -5 -1 -12 0 -17 1 -5 -7 -6 -19 -3 -11 3 -20 0 -20
-6 0 -7 11 -13 25 -13 20 -2 24 2 23 22 -2 23 -7 32 -9 17z"/>
<path d="M1580 1631 c0 -5 5 -13 10 -16 6 -3 10 -2 10 4 0 5 -4 13 -10 16 -5
3 -10 2 -10 -4z"/>
<path d="M6162 8340 c0 -14 2 -19 5 -12 2 6 2 18 0 25 -3 6 -5 1 -5 -13z"/>
<path d="M6835 8350 c3 -5 1 -10 -4 -10 -6 0 -11 -5 -11 -10 0 -6 8 -5 19 2
19 12 19 28 0 28 -6 0 -7 -4 -4 -10z"/>
<path d="M7355 8300 c-3 -6 1 -7 9 -4 18 7 21 14 7 14 -6 0 -13 -4 -16 -10z"/>
<path d="M7288 8283 c7 -3 16 -2 19 1 4 3 -2 6 -13 5 -11 0 -14 -3 -6 -6z"/>
<path d="M6660 8260 c0 -5 6 -10 14 -10 8 0 23 -3 33 -6 10 -3 7 2 -7 10 -30
18 -40 20 -40 6z"/>
<path d="M6898 8243 c12 -2 32 -2 45 0 12 2 2 4 -23 4 -25 0 -35 -2 -22 -4z"/>
<path d="M5946 8231 c-4 -5 -2 -12 3 -15 5 -4 12 -2 15 3 4 5 2 12 -3 15 -5 4
-12 2 -15 -3z"/>
<path d="M7030 8230 l-35 -7 35 -2 c27 -1 31 -4 20 -11 -18 -12 -2 -12 25 0
l20 9 -20 1 -20 1 20 9 c24 10 4 10 -45 0z"/>
<path d="M7110 8230 c-12 -8 -10 -10 8 -10 13 0 20 4 17 10 -7 12 -6 12 -25 0z"/>
<path d="M6835 8191 c-3 -6 1 -11 11 -11 13 0 14 -3 4 -15 -7 -8 -9 -16 -4
-16 59 -8 78 -7 92 1 12 7 6 8 -24 5 -36 -3 -40 -1 -40 18 1 23 -28 36 -39 18z"/>
<path d="M6970 8190 c-11 -8 -7 -9 15 -4 37 8 45 14 19 14 -10 0 -26 -5 -34
-10z"/>
<path d="M6810 8110 c-18 -12 -2 -12 25 0 13 6 15 9 5 9 -8 0 -22 -4 -30 -9z"/>
<path d="M8267 5813 c-4 -3 -7 -12 -7 -20 0 -11 4 -11 20 -3 11 6 18 15 15 21
-7 11 -19 12 -28 2z"/>
<path d="M7992 5777 c-6 -7 -12 -46 -15 -88 -2 -42 -7 -80 -10 -85 -3 -5 3
-20 12 -33 15 -20 21 -22 40 -12 28 15 57 6 64 -19 6 -24 42 -27 51 -4 6 16
17 16 88 -2 19 -4 36 -1 54 11 22 14 25 23 22 54 -2 29 0 37 12 36 28 -3 60
-16 60 -26 0 -5 7 -9 15 -9 8 0 15 9 15 20 0 14 -7 20 -23 20 -36 0 -47 18
-40 65 5 36 2 44 -18 58 -20 14 -25 15 -38 3 -9 -8 -28 -17 -43 -21 -15 -4
-32 -13 -39 -21 -9 -11 -7 -14 15 -14 19 0 26 -5 26 -20 0 -11 5 -20 10 -20
16 0 11 -26 -9 -44 -26 -23 -61 -8 -86 39 -31 59 -104 125 -139 125 -7 0 -18
-6 -24 -13z"/>
<path d="M8217 5503 c-11 -10 -8 -43 3 -43 15 0 24 30 13 41 -5 5 -12 6 -16 2z"/>
<path d="M7990 5356 c0 -12 33 -36 48 -36 14 1 12 5 -7 20 -21 19 -41 26 -41
16z"/>
</g>
</svg>
